<svg xmlns="http://www.w3.org/2000/svg" xmlns:xlink="http://www.w3.org/1999/xlink" version="1.1" viewBox="4 2 22 20">
    <!-- Generator: Sketch 41.2 (35397) - http://www.bohemiancoding.com/sketch -->
    <title>ic_online</title>
    <desc>Created with Sketch.</desc>
    <defs>
        <filter x="-50%" y="-50%" width="200%" height="200%" filterUnits="objectBoundingBox" id="filter-1">
            <feOffset dx="0" dy="2" in="SourceAlpha" result="shadowOffsetOuter1"/>
            <feGaussianBlur stdDeviation="2" in="shadowOffsetOuter1" result="shadowBlurOuter1"/>
            <feColorMatrix values="0 0 0 0 0   0 0 0 0 0   0 0 0 0 0  0 0 0 0.05 0" type="matrix" in="shadowBlurOuter1" result="shadowMatrixOuter1"/>
            <feMerge>
                <feMergeNode in="shadowMatrixOuter1"/>
                <feMergeNode in="SourceGraphic"/>
            </feMerge>
        </filter>
    </defs>
    <g id="OPt-2" stroke="none" stroke-width="1" fill="none" fill-rule="evenodd">
        <g id="prog2_pro3_Mobile-Portrait_opt2-Copy-2" transform="translate(-185.000000, -17.000000)" fill="#000000">
            <g id="nav">
                <g id="Group-6" filter="url(#filter-1)">
                    <g id="ic_online" transform="translate(189.000000, 19.000000)">
                        <path d="M20,12 L2,12 L2,2 L20,2 L20,12 Z M20,0 L2,0 C0.89,0 0,0.89 0,2 L0,14 C2.22044605e-16,15.1045695 0.8954305,16 2,16 L9,16 L7,19 L7,20 L15,20 L15,19 L13,16 L20,16 C21.1045695,16 22,15.1045695 22,14 L22,2 C22,0.89 21.1,0 20,0 Z" id="Shape"/>
                    </g>
                </g>
            </g>
        </g>
    </g>
</svg>